<?xml version="1.0" encoding="utf-8"?>
<!-- Generator: Adobe Illustrator 21.0.0, SVG Export Plug-In . SVG Version: 6.00 Build 0)  -->
<svg version="1.1" id="Слой_1" xmlns="http://www.w3.org/2000/svg" xmlns:xlink="http://www.w3.org/1999/xlink" x="0px" y="0px"
	 viewBox="0 0 776.4 222" style="enable-background:new 0 0 776.4 222;" xml:space="preserve">
<style type="text/css">
	.st0{fill:url(#SVGID_1_);}
	.st1{opacity:0.75;fill:url(#SVGID_2_);}
</style>
<g>
	<path d="M333.4,65.4l0.9,19.6h-1.7c-4.6-13.6-9.6-17.5-21.7-17.5h-2.6v30.7h4.2c6.1,0,10.2-4.8,11.7-12.4h1.4v27.9h-1.6
		c-2.1-9.5-5.4-13.1-11.5-13.1h-4.2v28.8H320v2.1h-35.7v-2.1h5.6V67.5h-5.6v-2.1H333.4z"/>
	<path d="M359.6,85.6c15.8,0,23.4,7.5,23.4,22.7c0,15.5-7.2,24.1-24,24.1c-15.8,0-23.9-8.5-23.9-23.2
		C335.2,93.7,344.4,85.6,359.6,85.6z M364.9,104.9c0-10.2-0.3-17.5-5.6-17.5c-5.8,0-6,7.4-6,18v7.4c0,10.9,0.2,18,5.9,18
		c5.4,0,5.7-5.6,5.7-17.8V104.9z"/>
	<path d="M408.4,104.5v25.3h6.7v1.7h-29.4v-1.7h5.2V88.3h-5.2v-1.7h22.7v9.1c1.7-6.7,7-10,12.6-10c5.6,0,10,2.9,10,10.1
		c0,5.4-2.8,9-7.9,9c-6.3,0-9.3-4-7.4-10.7h3.4c1.9-3.9,0-4.8-2-4.8C412.6,89.2,408.4,96,408.4,104.5z"/>
	<path d="M455.1,86.6v8.7c1.5-4.7,4.6-9.6,13.3-9.6c6.7,0,11.7,2.9,13.3,10.2c1.5-4.7,5.4-10.2,13.9-10.2c8.2,0,13.9,4.3,13.9,15.8
		v28.4h5.3v1.7h-26.1v-1.7h3.3V99.1c0-8-1-9-2.7-9c-3.4,0-6.9,5.1-6.9,13v26.6h3.4v1.7h-24.2v-1.7h3.3V99.1c0-8-1-9-2.7-9
		c-3.5,0-6.9,5.9-6.9,13.6v26h3.4v1.7h-26.1v-1.7h5.2V88.3h-5.2v-1.7H455.1z"/>
	<path d="M541.4,109.3V102c0-12-1-15.1-4.8-15.1c-1.7,0-4.4,0.8-4.4,3.8c0,0.8,0.2,1.7,0.6,2.7h2.4c0.5,1.2,0.8,2.5,0.8,4.2
		c0,4.4-3.6,7.4-8.3,7.4c-5.8,0-8.1-3.2-8.1-7.8c0-7.9,6.9-11.6,19.7-11.6c14.8,0,19.8,4.1,19.8,17.8v19.1c0,3.9,1.1,4.9,2.7,4.9
		c1.7,0,3.3-1.8,3.8-9.7l1.4,0.1c-0.5,11.3-4,14.5-12.1,14.5c-7.6,0-11.9-2.4-13-7c-1.5,4.5-4.2,7-10.8,7c-6.6,0-14-2-14-11.4
		c0-9.5,8.2-11.7,21.7-11.7H541.4z M541.4,119.6v-8.8h-0.7c-4,0-5.8,2.8-5.8,8.6v1.5c0,6.8,0.7,7.7,2.5,7.7S541.4,125.6,541.4,119.6
		z"/>
	<path d="M613,65.4c17.7,0,28.2,4,28.2,18.8c0,16-12.4,20.2-30.7,20.2h-0.8v25.3h11.8v1.8h-36.3v-1.8h6.1V67.2h-6.1v-1.8H613z
		 M609.8,102.6h2c7.9,0,10-5.5,10-16.4v-4.5c0-10.7-2.3-14.4-9.4-14.4h-2.5V102.6z"/>
	<path d="M667.4,60.7v69h5.3v1.7h-28v-1.7h5.2V62.4h-5.6v-1.7H667.4z"/>
	<path d="M707.6,131.4l-1-6.9c-1.8,4.4-4.8,7.8-13.3,7.8c-8.8,0-14.6-4.3-14.6-15.8V88.3h-5.3v-1.7h22.8v32.3c0,8,1.1,9.2,3.5,9.2
		c3.8,0,6.7-3.9,6.7-11V88.3h-4.3v-1.7h21.9v43.2h5.2v1.7H707.6z"/>
	<path d="M733.2,115.5h1.1c3.5,11.5,9.2,14.8,17,14.8c7,0,9.6-2.5,9.6-6.1c0-4.2-4.6-5.2-11.8-7.2c-7.5-2.1-15.9-5-15.9-15.5
		c0-9.6,6.6-15.9,16.6-15.9c4.2,0,7,1,9.5,2.2c1.1,0.5,1.5,0.8,2.6,0.8c1.4,0,2.1-0.8,3.3-3.1h1v14.4h-1.1
		c-3.4-8.7-8.2-12.3-14.9-12.3c-6.2,0-8.8,2.5-8.8,5.5c0,4.3,5.7,5.4,11.9,7.1c7.5,2,15.8,5,15.8,16.1c0,10.8-7,16.1-17.6,16.1
		c-4.5,0-7.7-0.9-11.3-2.7c-0.6-0.4-1.4-0.8-1.8-0.8c-1.2,0-2.5,0.8-4.1,3.5h-1.1V115.5z"/>
</g>
<linearGradient id="SVGID_1_" gradientUnits="userSpaceOnUse" x1="12.0953" y1="151.3092" x2="208.2134" y2="68.062">
	<stop  offset="0" style="stop-color:#341D6F"/>
	<stop  offset="1" style="stop-color:#694CB4"/>
</linearGradient>
<path class="st0" d="M217,110.5c0,58.8-47.7,106.5-106.5,106.5S4,169.3,4,110.5S41,4,110.5,4C169.3,4,217,51.7,217,110.5z"/>
<linearGradient id="SVGID_2_" gradientUnits="userSpaceOnUse" x1="51.4409" y1="152.1236" x2="247.5591" y2="68.8764">
	<stop  offset="0" style="stop-color:#1B6686"/>
	<stop  offset="1" style="stop-color:#93CEFC"/>
</linearGradient>
<circle class="st1" cx="149.5" cy="110.5" r="106.5"/>
<g>
	<path d="M105.8,71.3v18.6h15.3V92h-15.3v51h14.1v2.1H77.8V143h6.4V92h-6.7v-2.1h6.7v-0.5c0-21.1,6.8-34,27.7-34
		c14.5,0,18.4,7.3,18.4,13c0,7-4.2,10.1-9.6,10.1c-6.3,0-9.3-3.5-9.3-8.2c0-1.7,0.3-3.6,0.7-5h4.4c2.1-5.7-0.5-7.9-3.6-7.9
		C106.7,57.4,105.8,62.5,105.8,71.3z"/>
</g>
<g>
	<path d="M140.5,99c2.5-5.8,7-10.3,16-10.3c13,0,21,9.2,21,28.8c0,19.8-8.1,28.6-23.9,28.6c-7.9,0-10.8-2.1-12.9-5.7v30h14.9v2.1
		h-42.9v-2.1h6.4V92H113v-2.1h27.5V99z M140.7,109.7v21.2c0,6.3,2.4,11.9,7.5,11.9c5.7,0,6.8-6.8,6.8-22.9v-6
		c0-16.3-1.4-20.2-5.3-20.2C145,93.7,140.7,99.6,140.7,109.7z"/>
</g>
<circle cx="120.8" cy="69.9" r="10.4"/>
<circle cx="155.1" cy="69.9" r="10.4"/>
<circle cx="95.5" cy="162.2" r="10.4"/>
</svg>
